<svg width="515" height="517" viewBox="0 0 515 517" fill="none" xmlns="http://www.w3.org/2000/svg">
<path d="M257.721 516.037C399.628 516.037 514.667 400.545 514.667 258.079C514.667 115.613 399.628 0.121094 257.721 0.121094C115.813 0.121094 0.774414 115.613 0.774414 258.079C0.774414 400.545 115.813 516.037 257.721 516.037Z" fill="#09282B"/>
<path d="M314.372 261.112C325.545 261.112 334.604 252.054 334.604 240.88C334.604 229.707 325.545 220.648 314.372 220.648C303.198 220.648 294.14 229.707 294.14 240.88C294.14 252.054 303.198 261.112 314.372 261.112Z" fill="#F7F8F6"/>
<path d="M196.754 53.5595C196.051 54.7081 195.951 56.1439 196.453 57.7711C196.854 59.1111 197.657 60.164 198.961 61.0255C200.265 61.7912 202.372 62.6527 205.282 63.4184L210.098 64.7584C212.607 65.4285 214.513 66.3856 215.918 67.4385C217.323 68.4914 218.326 70.0229 218.828 71.8415C219.43 73.8516 219.43 75.766 218.828 77.5846C218.226 79.4032 217.222 80.839 215.717 82.0833C214.312 83.3277 212.607 84.1891 210.801 84.6677C207.991 85.4335 205.383 85.1463 202.974 83.9977C200.566 82.8491 198.459 81.0304 196.754 78.6375L200.767 74.8088C202.573 77.776 204.479 79.8818 206.386 80.9347C208.292 81.9876 210.098 82.3705 211.804 81.8919C213.51 81.4133 214.714 80.6476 215.517 79.499C216.319 78.3503 216.42 77.0103 216.018 75.4788C215.617 73.9473 214.814 72.7987 213.911 71.9373C212.908 71.0758 211.102 70.3101 208.694 69.5443L202.573 67.8214C200.968 67.3428 199.563 66.8642 198.359 66.2899C197.155 65.7156 196.152 65.0456 195.248 64.0884C194.345 63.1312 193.743 62.0783 193.342 60.7383C192.84 59.0154 192.84 57.1967 193.442 55.3781C194.044 53.5595 195.148 52.028 196.754 50.5922C198.359 49.2522 200.366 48.1993 202.874 47.5293C205.985 46.7635 208.593 46.4764 210.6 46.7635L211.704 54.9952C209.797 53.1766 207.891 51.8366 205.884 51.2623C203.877 50.6879 201.971 50.5922 200.165 50.9751C198.56 51.358 197.456 52.1237 196.754 53.368V53.5595Z" fill="#F7F8F6"/>
<path d="M224.411 76.3886C224.411 75.0002 224.411 73.4133 224.136 71.7273L221.754 52.4871C221.479 50.5036 221.204 48.9168 220.838 47.5283C220.471 46.1398 219.922 44.7513 219.28 43.5612L225.51 42.6686C225.51 44.0571 225.693 45.5448 225.877 47.1316C226.06 48.7184 226.243 50.3052 226.335 51.7929L228.717 71.0331C229.083 74.3059 229.633 77.2812 230.366 80.0581L223.953 81.0499C224.319 79.3639 224.502 77.8763 224.502 76.4878L224.411 76.3886ZM236.413 45.9415C235.313 45.0489 234.031 44.4538 232.473 44.1563C230.916 43.8588 228.992 43.8588 226.61 44.1563L223.861 44.553L223.678 42.867L238.886 40.5859L239.802 49.5118C238.703 47.925 237.512 46.7349 236.504 45.8423L236.413 45.9415ZM234.58 61.413C233.206 61.1155 231.282 61.1155 228.808 61.413L224.961 62.008L224.777 60.322L228.625 59.727C231.099 59.3303 233.023 58.8344 234.214 58.041C235.496 57.2476 236.596 56.0575 237.695 54.1731L238.886 63.7932C237.42 62.5039 235.954 61.7105 234.58 61.413ZM228.075 78.6697L230.824 78.273C233.206 77.9754 235.038 77.3804 236.413 76.6862C237.787 75.9919 238.886 75.0002 239.711 73.9092C240.535 72.8183 241.36 71.1323 242.276 69.0496L243.559 78.1738L228.35 80.3557L228.167 78.6697H228.075Z" fill="#F7F8F6"/>
<path d="M252.156 40.6798L277.954 41.4307L277.652 51.0982C276.745 48.7517 275.938 46.9684 275.032 45.8421C274.225 44.7158 273.117 43.871 271.706 43.4956C270.295 43.1202 268.381 42.7447 265.861 42.6509H263.947C261.427 42.557 259.412 42.6508 258.001 43.0263C256.59 43.4017 255.482 44.1526 254.575 45.1851C253.668 46.2175 252.66 48.0009 251.652 50.2535L252.055 40.5859L252.156 40.6798ZM261.125 72.4044C261.427 71.0904 261.528 69.5886 261.629 67.993L262.536 41.3368L267.574 41.5245L266.667 68.1807C266.667 69.6825 266.667 70.9965 266.768 72.1228C266.97 73.7184 267.373 75.4079 267.977 77.0035L259.815 76.7219C260.42 75.2202 260.923 73.8123 261.125 72.4983V72.4044Z" fill="#F7F8F6"/>
<path d="M284.825 70.0978C284.825 72.2839 285.31 74.0725 286.377 75.4636C287.444 76.8547 288.996 77.6497 291.13 78.0471L289.093 80.8294C285.795 80.2332 283.37 78.9414 282.012 76.9541C280.654 74.9668 279.975 72.582 279.975 69.8991C279.975 69.0048 279.975 68.0111 280.266 66.8187L283.176 49.3302C283.467 47.641 283.564 46.1505 283.564 44.7593C283.564 43.4676 283.37 42.0764 283.176 40.5859L290.839 41.8777C290.063 43.3682 289.384 44.66 289.093 45.8524C288.705 47.0448 288.414 48.4359 288.123 50.2245L285.116 67.9117C285.019 68.7067 284.922 69.5016 284.922 70.1972L284.825 70.0978ZM298.405 78.7427C296.271 80.8294 293.167 81.525 289.093 80.73L291.13 77.9478C293.555 78.3452 295.592 77.9478 297.144 76.656C298.696 75.3642 299.763 73.2775 300.248 70.4953L303.255 52.808C303.546 51.1188 303.643 49.5289 303.643 48.0384C303.643 46.7467 303.352 45.3555 302.964 43.865L308.299 44.8587C307.426 46.4486 306.747 47.8397 306.359 49.0321C305.971 50.2245 305.583 51.6156 305.292 53.1061L302.382 70.4953C301.8 73.8737 300.442 76.5566 298.308 78.6433L298.405 78.7427Z" fill="#F7F8F6"/>
<path d="M312.838 80.8919C313.489 79.7598 314.048 78.3446 314.606 76.7407L320.751 59.381C321.402 57.5884 321.775 56.0789 321.961 54.8524C322.147 53.4372 322.333 52.022 322.24 50.7012L328.291 52.8711C327.732 54.192 327.174 55.5128 326.615 56.8337C326.15 58.1545 325.591 59.381 325.126 60.7019V60.9849L318.889 78.3446C318.889 78.3446 318.889 78.3446 318.889 78.5333C318.33 79.9485 318.051 81.2693 317.865 82.3071C317.585 83.8166 317.399 85.4205 317.492 87.1188L310.324 84.5714C311.348 83.3449 312.186 82.1184 312.838 80.8919ZM327.919 73.0612C326.801 72.1177 325.033 71.1743 322.705 70.3252L319.075 69.0043L319.633 67.4948L323.264 68.8156C325.684 69.6647 327.639 70.1365 329.036 70.0421C330.432 69.9478 332.108 69.476 333.783 68.4382L330.711 77.1181C329.967 75.3255 329.036 74.0046 327.919 73.0612ZM334.807 58.7206C333.504 57.0224 331.456 55.7015 328.57 54.6637L326.15 53.7202L326.708 52.2107L340.672 57.3054L337.6 65.3248C337.135 62.5888 336.204 60.4188 334.9 58.7206H334.807Z" fill="#F7F8F6"/>
<path d="M337.863 92.4026C336.813 89.9864 336.432 87.2803 336.718 84.1877C337.004 81.095 338.054 77.809 339.773 74.5231C341.395 71.3338 343.4 68.821 345.691 66.7914C347.982 64.7619 350.464 63.5055 353.136 63.0222C355.809 62.539 358.291 63.0222 360.868 64.2786C363.064 65.4384 364.686 67.178 365.736 69.5942C366.786 72.0103 367.168 74.813 366.882 77.9057C366.596 81.095 365.546 84.2843 363.827 87.6669C362.205 90.7596 360.2 93.369 357.909 95.3019C355.618 97.2349 353.136 98.5879 350.464 99.0711C347.791 99.5544 345.214 99.0711 342.732 97.8147C340.536 96.655 338.914 94.8187 337.768 92.4992L337.863 92.4026ZM349.414 96.7516C350.941 96.1718 352.468 95.1086 353.9 93.4657C355.332 91.8227 356.764 89.6965 358.005 87.1837C359.914 83.4145 361.25 80.0319 361.823 77.0359C362.395 74.0399 362.395 71.5271 361.823 69.5942C361.25 67.6612 360.2 66.2116 358.577 65.3417C357.05 64.5686 355.618 64.3753 354.091 64.8585C352.564 65.3417 351.132 66.4048 349.7 68.0478C348.268 69.6908 346.836 71.817 345.5 74.5231C343.782 77.9057 342.541 80.9984 341.873 84.091C341.204 87.087 341.109 89.6965 341.586 91.8227C342.064 93.9489 343.114 95.4952 344.832 96.365C346.359 97.1382 347.791 97.2349 349.318 96.7516H349.414Z" fill="#F7F8F6"/>
<path d="M360.281 103.708C361.259 102.741 362.335 101.579 363.312 100.225L374.754 85.0332C375.829 83.6785 376.612 82.4206 377.198 81.3562C377.981 79.9048 378.567 78.4534 378.959 77.002L384.337 80.8724C382.479 83.0012 380.914 84.9364 379.741 86.4846L378.763 87.8393L367.322 103.128C366.442 104.289 365.757 105.353 365.17 106.321C364.29 107.869 363.704 109.514 363.215 111.256L356.858 106.611C358.227 105.74 359.401 104.773 360.477 103.805L360.281 103.708ZM371.82 96.064L374.949 98.3863C376.025 99.1604 377.101 99.741 378.274 99.9345C379.448 100.225 380.523 100.128 381.697 99.6442C382.87 99.2571 384.044 98.3863 385.119 97.2251C385.315 97.0316 385.608 96.6446 385.999 96.1608C387.955 93.5482 388.835 91.2259 388.737 89.1939C388.64 87.1619 387.564 85.3235 385.413 83.7753C383.066 82.1303 381.306 80.9692 380.034 80.3886L382.381 79.6145L387.368 83.2915C390.009 85.2267 391.867 87.4522 392.845 90.0648C393.822 92.5806 393.138 95.4834 390.791 98.5798C389.715 100.031 388.444 101.096 386.977 101.87C385.51 102.644 383.946 103.031 382.381 103.031C380.817 103.031 379.35 102.837 377.981 102.257L376.221 101.483C374.363 100.128 372.505 98.7733 370.647 97.4187L371.722 96.1608L371.82 96.064ZM376.318 101.966C376.318 101.966 375.829 100.999 375.243 100.612L378.959 101.289C379.839 101.87 380.328 102.45 380.719 103.031C381.012 103.611 381.208 104.192 381.11 104.869C381.11 105.547 380.817 106.321 380.523 107.385L377.785 115.223C377.394 116.287 377.198 117.255 377.101 118.126C377.003 118.997 376.905 120.061 376.905 121.512L371.527 117.642L375.927 104.579C376.318 103.418 376.416 102.644 376.318 102.16V101.966Z" fill="#F7F8F6"/>
<path d="M376.764 124.249C377.351 123.582 377.939 122.821 378.232 121.964C378.624 121.107 378.82 120.345 378.82 119.488C380.484 119.964 382.54 120.345 385.183 120.726C384.987 122.059 384.4 123.297 383.323 124.439C382.442 125.391 381.365 126.153 380.093 126.724C378.82 127.295 377.547 127.581 376.275 127.581C375.002 127.581 373.925 127.295 373.044 126.629C374.512 126.153 375.687 125.391 376.764 124.344V124.249Z" fill="#F7F8F6"/>
<path d="M393.276 129.786C394.405 129.002 395.628 128.12 396.852 126.945L410.779 114.404C412.19 113.13 413.32 111.954 414.167 110.877C415.013 109.799 415.766 108.623 416.425 107.35L420.66 112.444C419.625 113.228 418.495 114.11 417.272 115.09C416.049 116.069 414.919 117.049 413.79 118.029L399.863 130.57C397.51 132.725 395.44 134.783 393.558 136.938L389.229 131.746C390.735 131.158 392.053 130.472 393.182 129.786H393.276ZM393.558 134.293L395.346 136.546C396.946 138.506 398.452 139.878 399.769 140.661C401.086 141.445 402.498 141.935 403.815 142.033C405.133 142.131 406.921 142.033 409.085 141.739L402.498 147.814L392.241 135.469L393.464 134.293H393.558ZM410.873 130.864C410.402 129.394 409.273 127.729 407.579 125.671L404.945 122.536L406.168 121.458L408.803 124.593C410.497 126.651 412.002 128.022 413.32 128.708C414.637 129.394 416.237 129.786 418.307 129.786L411.344 135.959C411.532 133.999 411.344 132.235 410.873 130.766V130.864ZM424.236 124.201C424.236 122.732 424.047 121.262 423.389 119.695C422.73 118.127 421.695 116.363 420.095 114.404L418.213 112.15L419.436 111.073L429.693 123.516L423.012 129.198C423.671 127.337 424.047 125.671 424.141 124.299L424.236 124.201Z" fill="#F7F8F6"/>
<path d="M414.289 150.361C412.757 151.802 411.8 153.339 411.608 154.973C411.417 156.606 411.8 158.336 412.949 160.162L409.597 160.45C407.778 157.663 407.107 155.069 407.586 152.763C408.065 150.457 409.31 148.439 411.225 146.613C411.895 146.037 412.661 145.46 413.619 144.787L427.983 135.467C429.323 134.602 430.472 133.641 431.526 132.68C432.483 131.816 433.345 130.759 434.207 129.605L438.325 136.043C436.697 136.428 435.356 136.812 434.303 137.389C433.249 137.869 432.005 138.542 430.568 139.503L416.013 148.919C415.343 149.304 414.768 149.784 414.289 150.265V150.361ZM417.258 166.023C414.385 165.831 411.8 164.005 409.597 160.546L412.949 160.258C414.289 162.276 415.917 163.525 417.832 163.813C419.747 164.101 421.95 163.525 424.344 161.987L438.899 152.571C440.336 151.706 441.485 150.745 442.538 149.784C443.4 148.823 444.262 147.766 445.028 146.613L447.9 151.129C446.177 151.514 444.74 151.898 443.591 152.378C442.442 152.859 441.197 153.532 439.953 154.3L425.685 163.525C422.908 165.35 420.131 166.119 417.258 165.927V166.023Z" fill="#F7F8F6"/>
<path d="M452.753 165.261C453.728 164.198 454.606 163.135 455.191 161.975L458.701 170.482C458.701 170.482 457.726 170.578 456.946 170.772C456.264 170.965 455.484 171.158 454.704 171.545C453.143 172.125 451.876 172.898 450.706 173.769L430.815 189.816L430.133 188.173L455.679 185.659C456.459 185.659 457.239 185.466 458.019 185.272C458.799 185.079 459.579 184.789 460.261 184.499C461.041 184.209 461.724 183.822 462.309 183.532C462.894 183.242 463.284 182.759 463.576 182.372L466.111 188.463C464.746 187.979 463.381 187.786 461.821 187.689C460.359 187.689 458.506 187.689 456.264 187.786L426.72 190.299L425.647 187.883L448.463 169.032C450.218 167.582 451.583 166.228 452.656 165.261H452.753Z" fill="#F7F8F6"/>
<path d="M434.7 207.66C435.723 205.267 437.49 203.161 439.907 201.343C442.325 199.524 445.301 198.184 448.834 197.227C452.181 196.366 455.25 196.174 458.226 196.557C461.201 196.94 463.712 197.993 465.757 199.62C467.803 201.247 469.198 203.449 469.849 206.224C470.407 208.617 470.221 211.01 469.198 213.403C468.175 215.796 466.408 217.902 463.898 219.72C461.387 221.539 458.412 222.974 454.971 223.836C451.717 224.697 448.555 224.889 445.58 224.506C442.604 224.123 440.186 223.07 438.141 221.443C436.095 219.816 434.7 217.614 434.049 214.839C433.491 212.446 433.677 210.053 434.7 207.66ZM439.071 219.146C440.465 219.912 442.232 220.294 444.371 220.294C446.509 220.294 448.927 219.912 451.531 219.242C455.436 218.189 458.69 216.944 461.294 215.413C463.805 213.882 465.664 212.254 466.687 210.532C467.71 208.809 468.082 207.086 467.617 205.363C467.245 203.736 466.408 202.491 465.013 201.726C463.712 200.96 461.945 200.577 459.899 200.577C457.854 200.577 455.343 200.96 452.553 201.63C449.02 202.587 445.951 203.736 443.348 205.267C440.744 206.703 438.792 208.426 437.583 210.149C436.374 211.967 436.002 213.786 436.374 215.509C436.746 217.136 437.676 218.38 439.071 219.146Z" fill="#F7F8F6"/>
<path d="M446.778 235.691C444.668 236.179 443.133 237.154 442.174 238.52C441.215 239.885 440.735 241.641 440.927 243.786L437.858 242.421C437.57 239.007 438.145 236.374 439.68 234.619C441.215 232.765 443.229 231.595 445.819 230.912C446.683 230.717 447.642 230.522 448.793 230.425L465.867 228.962C467.498 228.767 468.937 228.572 470.28 228.182C471.527 227.889 472.774 227.401 474.117 226.719L474.788 234.423C473.253 234.033 471.814 233.741 470.663 233.643C469.512 233.643 468.073 233.643 466.347 233.741L449.081 235.204C448.313 235.204 447.546 235.399 446.874 235.594L446.778 235.691ZM442.078 251.101C439.584 249.54 438.241 246.712 437.858 242.518L440.927 243.884C441.119 246.322 442.078 248.175 443.613 249.443C445.244 250.711 447.354 251.198 450.232 250.906L467.498 249.345C469.224 249.15 470.663 248.955 472.006 248.565C473.253 248.175 474.404 247.59 475.747 246.907L476.227 252.369C474.5 251.881 473.061 251.588 471.814 251.491C470.567 251.393 469.224 251.393 467.69 251.491L450.711 252.954C447.45 253.246 444.572 252.564 442.078 251.101Z" fill="#F7F8F6"/>
<path d="M438.888 259.899C439.578 259.333 440.366 259.09 441.253 259.09C442.238 259.09 443.026 259.414 443.716 259.899C444.405 260.466 444.701 261.113 444.602 261.922C444.504 262.732 444.208 263.379 443.519 263.865C442.829 264.35 442.041 264.674 441.056 264.593C440.169 264.593 439.381 264.269 438.691 263.703C438.002 263.136 437.706 262.489 437.805 261.68C437.805 260.87 438.199 260.223 438.79 259.737L438.888 259.899ZM448.543 261.841C449.824 261.599 451.006 261.437 452.287 261.275C453.568 261.113 454.75 261.032 456.031 260.87C457.311 260.708 458.494 260.708 459.774 260.627C461.055 260.627 462.336 260.466 463.715 260.466H463.814C469.134 260.304 473.271 260.061 476.227 259.899V265.159C473.074 264.917 469.035 264.593 463.715 264.188C460.562 263.946 457.705 263.703 455.242 263.46C452.779 263.136 450.218 262.732 447.755 262.165H447.361L448.543 261.841Z" fill="#F7F8F6"/>
<path d="M468.145 304.687C469.622 304.49 471 304.095 472.182 303.602L469.622 312.681C469.622 312.681 468.736 312.188 468.047 311.892C467.358 311.596 466.668 311.398 465.782 311.102C464.207 310.707 462.73 310.411 461.254 310.411L435.361 310.905L435.853 309.227L457.709 323.044C458.398 323.439 459.088 323.834 459.777 324.228C460.564 324.524 461.254 324.82 462.041 325.018C462.829 325.215 463.616 325.413 464.306 325.511C464.995 325.511 465.585 325.511 466.078 325.413L464.207 331.926C463.419 330.742 462.435 329.656 461.352 328.669C460.171 327.683 458.694 326.498 456.823 325.314L431.718 308.931L432.505 306.365L462.435 305.378C464.798 305.378 466.668 305.082 468.145 304.885V304.687Z" fill="#F7F8F6"/>
<path d="M432.002 324.361C433.14 325.023 434.562 325.685 436.08 326.347L453.34 333.154C454.952 333.815 456.375 334.194 457.513 334.477C459.125 334.855 460.642 334.95 462.065 335.044L459.315 342.041C458.082 341.001 456.944 340.055 455.711 339.393C454.478 338.732 453.15 338.07 451.633 337.503L434.373 330.696C432.76 330.034 431.338 329.656 430.2 329.372C428.682 329.088 427.165 328.899 425.647 328.805L428.398 321.809C429.631 322.849 430.769 323.794 432.002 324.456V324.361Z" fill="#F7F8F6"/>
<path d="M427.063 331.999C427.944 333.205 429.218 334.713 430.786 336.322L451.948 357.835L450.675 360.248L421.282 355.02C418.931 354.618 417.069 354.417 415.599 354.317C414.13 354.317 412.758 354.317 411.484 354.618L415.795 346.073C415.795 346.073 416.579 346.777 417.167 347.179C417.755 347.581 418.441 347.983 419.224 348.385C420.694 349.19 422.066 349.692 423.535 349.994L448.911 354.92L448.127 356.528L429.512 338.131C429.022 337.629 428.336 337.025 427.65 336.523C426.965 336.02 426.279 335.618 425.593 335.216C424.809 334.814 424.123 334.512 423.535 334.311C422.948 334.11 422.36 334.009 421.87 334.009L425.005 327.877C425.495 329.184 426.279 330.491 427.16 331.697L427.063 331.999ZM427.454 353.613L425.985 352.809L432.745 339.438L434.215 340.242L427.454 353.613Z" fill="#F7F8F6"/>
<path d="M411.68 377.092C413.209 377.668 414.432 378.051 415.554 378.051C416.675 378.051 417.796 378.051 419.02 377.763L413.719 384.765L399.345 375.078C399.447 373.543 399.854 372.009 400.466 370.378C401.078 368.747 401.995 367.213 403.117 365.678L401.791 371.433C405.971 374.215 409.233 376.133 411.68 376.996V377.092ZM409.641 360.978C412.291 360.115 415.146 360.019 418.306 360.691C421.364 361.362 424.626 362.705 427.787 364.911C431.049 367.117 433.597 369.611 435.33 372.488C437.063 375.27 437.879 378.147 437.777 381.12C437.777 383.998 436.656 386.779 434.719 389.369C433.088 391.575 431.049 393.302 428.704 394.644L422.588 388.602C425.442 388.985 427.889 388.794 429.825 388.122C431.762 387.451 433.292 386.3 434.515 384.669C435.534 383.326 435.942 381.984 435.738 380.545C435.534 379.106 434.821 377.572 433.393 375.941C431.966 374.31 429.825 372.488 427.073 370.666C423.913 368.556 420.855 367.117 417.796 366.254C414.738 365.39 411.884 365.199 409.437 365.678C406.99 366.158 405.054 367.309 403.728 369.035C403.117 369.802 402.607 370.57 402.199 371.433C401.791 372.2 401.384 373.064 401.078 374.023C401.078 374.31 400.976 374.598 400.874 374.79L403.219 365.87C404.952 363.568 407.194 361.937 409.845 361.074L409.641 360.978Z" fill="#F7F8F6"/>
<path d="M395.319 381.069L393.325 383.194C391.615 385.029 390.475 386.67 389.81 388.119C389.145 389.567 388.86 391.016 388.86 392.368C388.86 393.72 389.145 395.555 389.715 397.68L383.161 391.596L394.085 379.91L395.319 381.069ZM399.689 380.297C400.544 381.359 401.588 382.518 402.728 383.677L416.216 396.617C417.546 397.969 418.876 398.935 419.921 399.708C421.061 400.48 422.295 401.156 423.625 401.639L419.161 406.468C418.306 405.502 417.261 404.44 416.216 403.281C415.171 402.219 414.032 401.06 412.987 400.094L399.499 387.153C397.219 384.932 394.939 383.001 392.755 381.359L397.314 376.434C398.074 377.882 398.834 379.234 399.689 380.297ZM400.449 398.356C401.778 397.68 403.298 396.424 405.103 394.493L407.857 391.499L408.997 392.658L406.243 395.652C404.438 397.583 403.298 399.225 402.728 400.673C402.158 402.122 401.968 403.764 402.253 405.888L395.509 399.418C397.504 399.418 399.119 399.128 400.449 398.452V398.356ZM408.332 411.296C409.662 411.296 411.087 410.813 412.607 410.041C414.032 409.268 415.646 407.916 417.356 406.081L419.351 403.957L420.586 405.116L409.662 416.898L403.583 410.717C405.483 411.2 407.098 411.393 408.427 411.296H408.332Z" fill="#F7F8F6"/>
<path d="M363.117 407.167L365.771 405.034L398.369 418.998L397.327 419.773L383.112 401.543C382.07 400.282 381.028 399.118 379.985 398.246C379.038 397.373 377.9 396.597 376.763 395.918L380.838 392.621C381.407 394.27 382.07 395.724 382.639 396.888C383.207 397.955 383.965 399.118 384.818 400.282L397.327 416.282C398.464 417.737 399.601 418.901 400.644 419.773C401.496 420.549 402.444 421.131 403.392 421.519L397.706 426.174C397.611 425.495 397.327 424.913 396.948 424.428C396.664 424.04 396.284 423.749 395.811 423.458C395.337 423.167 394.768 422.877 393.915 422.586L367.097 411.143L368.045 410.367L381.975 428.21C382.923 429.374 383.87 430.44 384.913 431.41C385.671 432.089 386.808 432.962 388.324 433.834L384.25 437.131C383.681 435.483 383.112 434.028 382.544 432.962C381.975 431.895 381.217 430.731 380.269 429.471L362.928 407.167H363.117Z" fill="#F7F8F6"/>
<path d="M372.39 439.292C372.687 438.033 372.39 436.58 371.597 435.128C370.804 433.868 369.812 433.094 368.325 432.609C366.838 432.125 364.657 431.931 361.683 431.834H356.726C354.148 431.737 352.066 431.35 350.381 430.672C348.695 429.994 347.307 428.832 346.316 427.088C345.225 425.248 344.63 423.408 344.729 421.47C344.829 419.533 345.324 417.79 346.415 416.24C347.505 414.69 348.794 413.334 350.381 412.463C352.859 411.01 355.338 410.525 358.014 411.01C360.592 411.494 363.071 412.753 365.45 414.69L362.674 419.436C360.096 416.918 357.717 415.465 355.635 414.884C353.454 414.303 351.669 414.497 350.182 415.272C348.695 416.143 347.803 417.209 347.406 418.565C347.01 419.921 347.208 421.277 348.001 422.633C348.794 423.989 349.885 424.957 351.074 425.539C352.264 426.12 354.148 426.41 356.726 426.507H362.971C364.657 426.701 366.144 426.798 367.433 426.991C368.722 427.185 369.911 427.669 371.002 428.347C372.092 429.025 372.985 429.897 373.679 431.156C374.67 432.803 375.067 434.546 375.067 436.387C375.067 438.227 374.373 440.067 373.183 441.908C371.993 443.651 370.308 445.201 368.226 446.46C365.45 448.107 363.071 448.978 361.088 449.269L357.717 441.52C360.096 442.876 362.277 443.554 364.359 443.651C366.441 443.651 368.226 443.361 369.812 442.392C371.2 441.617 372.092 440.552 372.39 439.196V439.292Z" fill="#F7F8F6"/>
<path d="M318.624 464.772C319.328 463.616 319.428 462.172 319.026 460.535C318.624 459.186 317.82 458.031 316.514 457.26C315.207 456.49 313.097 455.623 310.182 454.853L305.358 453.505C302.846 452.83 300.936 451.867 299.529 450.808C298.122 449.749 297.117 448.208 296.614 446.378C296.011 444.356 296.011 442.43 296.614 440.6C297.217 438.77 298.222 437.326 299.73 436.074C301.237 434.822 302.846 433.955 304.755 433.474C307.569 432.8 310.182 432.992 312.594 434.148C315.006 435.303 317.117 437.133 318.825 439.637L314.805 443.489C312.996 440.407 311.087 438.385 309.177 437.229C307.268 436.074 305.459 435.785 303.75 436.17C302.042 436.555 300.835 437.422 300.031 438.578C299.227 439.733 299.127 441.082 299.529 442.622C299.931 444.163 300.634 445.319 301.639 446.186C302.645 447.052 304.353 447.823 306.866 448.593L312.996 450.327C314.604 450.808 316.011 451.29 317.217 451.867C318.423 452.445 319.428 453.119 320.333 454.082C321.137 454.949 321.84 456.105 322.142 457.453C322.644 459.283 322.544 461.016 321.941 462.846C321.338 464.676 320.232 466.216 318.624 467.661C317.016 469.009 314.906 470.069 312.494 470.646C309.378 471.417 306.765 471.706 304.755 471.417L303.65 463.135C305.559 465.061 307.469 466.313 309.479 466.891C311.489 467.565 313.398 467.661 315.207 467.18C316.815 466.794 317.921 466.024 318.624 464.772Z" fill="#F7F8F6"/>
<path d="M287.274 439.398L284.526 439.775C282.144 440.059 280.312 440.625 278.937 441.287C277.563 441.948 276.464 442.892 275.639 443.931C274.815 445.065 273.99 446.576 273.074 448.559L271.883 439.87L287.091 437.792L287.274 439.398ZM278.937 470.471C280.037 471.321 281.319 471.888 282.877 472.171C284.434 472.455 286.45 472.455 288.74 472.171L291.489 471.794L291.672 473.494L276.464 475.572L275.547 467.071C276.647 468.582 277.746 469.81 278.846 470.566L278.937 470.471ZM280.861 455.737C282.235 456.115 284.159 456.115 286.633 455.737L290.481 455.171L290.664 456.776L286.816 457.343C284.343 457.721 282.419 458.193 281.228 458.949C279.945 459.704 278.846 460.838 277.746 462.538L276.555 453.471C278.021 454.698 279.395 455.454 280.861 455.832V455.737ZM291.031 441.476C291.031 442.798 291.031 444.309 291.306 446.009L293.688 464.332C293.962 466.221 294.237 467.732 294.604 469.055C294.97 470.377 295.52 471.605 296.161 472.833L289.931 473.683C289.931 472.36 289.748 470.944 289.656 469.432C289.565 467.921 289.382 466.41 289.198 464.899L286.816 446.576C286.45 443.459 285.9 440.625 285.259 437.981L291.672 437.131C291.306 438.736 291.122 440.153 291.122 441.476H291.031Z" fill="#F7F8F6"/>
<path d="M263.385 477.496L237.488 476.607L237.792 466.429C238.702 468.899 239.511 470.777 240.321 471.962C241.13 473.148 242.243 474.038 243.659 474.532C244.974 475.026 246.997 475.322 249.526 475.421H251.448C253.977 475.619 256.001 475.421 257.316 475.026C258.732 474.631 259.845 473.84 260.755 472.753C261.665 471.666 262.677 469.887 263.79 467.417L263.385 477.595V477.496ZM254.382 443.996C254.079 445.38 253.977 446.961 253.876 448.641L252.865 476.706L247.807 476.508L248.818 448.443C248.818 446.862 248.818 445.578 248.818 444.293C248.616 442.613 248.211 440.933 247.604 439.154L255.798 439.451C255.191 441.032 254.685 442.514 254.382 443.898V443.996Z" fill="#F7F8F6"/>
<path d="M217.192 437.36C219.318 435.286 222.41 434.694 226.469 435.385L224.343 438.15C221.927 437.755 219.898 438.15 218.351 439.433C216.805 440.717 215.742 442.791 215.259 445.555L212.263 463.132C211.973 464.81 211.877 466.39 211.877 467.871C211.877 469.155 212.167 470.537 212.457 472.019L207.142 471.031C208.011 469.451 208.688 468.069 209.074 466.884C209.558 465.699 209.847 464.317 210.137 462.835L213.133 445.555C213.713 442.198 215.066 439.532 217.192 437.458V437.36ZM230.624 446.049C230.624 443.877 230.141 442.099 229.078 440.717C228.015 439.335 226.469 438.545 224.343 438.15L226.469 435.385C229.755 435.977 232.074 437.261 233.523 439.236C234.973 441.211 235.553 443.58 235.456 446.345C235.456 447.234 235.456 448.221 235.166 449.406L232.17 466.785C231.881 468.464 231.784 469.945 231.784 471.327C231.784 472.611 231.977 473.993 232.17 475.573L224.536 474.191C225.406 472.71 225.986 471.426 226.372 470.241C226.759 469.056 227.049 467.674 227.339 465.897L230.334 448.32C230.528 447.53 230.528 446.74 230.528 446.049H230.624Z" fill="#F7F8F6"/>
<path d="M180.635 459.037C181.939 460.825 183.987 462.215 186.872 463.308L189.293 464.202L188.734 465.791L174.771 460.427L177.843 451.984C178.308 454.865 179.239 457.15 180.542 458.937L180.635 459.037ZM187.524 443.939C188.641 444.932 190.41 445.925 192.737 446.819L196.368 448.21L195.809 449.799L192.179 448.408C189.758 447.514 187.896 447.018 186.407 447.117C184.918 447.117 183.335 447.713 181.659 448.806L184.731 439.667C185.476 441.555 186.407 442.945 187.524 443.939ZM202.698 435.694C202.046 436.886 201.488 438.376 200.929 440.065L194.785 458.341C194.134 460.229 193.761 461.818 193.482 463.109C193.296 464.599 193.11 466.089 193.11 467.48L187.152 465.195C187.71 463.805 188.269 462.414 188.827 461.023C189.386 459.633 189.851 458.341 190.317 456.852V456.554L196.554 438.277C196.554 438.277 196.554 438.277 196.554 438.078C197.019 436.588 197.392 435.198 197.578 434.105C197.857 432.516 198.044 430.827 197.95 429.039L205.118 431.82C204.094 433.112 203.257 434.403 202.605 435.595L202.698 435.694Z" fill="#F7F8F6"/>
<path d="M179.601 423.75C180.652 426.167 181.035 428.873 180.748 431.966C180.461 435.059 179.41 438.345 177.689 441.631C176.064 444.724 174.057 447.334 171.763 449.364C169.468 451.393 166.983 452.65 164.306 453.133C161.63 453.617 159.145 453.133 156.564 451.78C154.365 450.62 152.74 448.88 151.689 446.464C150.637 444.048 150.255 441.245 150.637 438.152C150.924 434.962 151.975 431.773 153.696 428.486C155.321 425.393 157.328 422.784 159.623 420.851C161.917 418.821 164.402 417.564 167.079 417.081C169.755 416.598 172.336 417.081 174.821 418.434C177.02 419.594 178.645 421.431 179.696 423.75H179.601ZM168.035 419.304C166.505 419.788 164.976 420.947 163.542 422.59C162.108 424.234 160.674 426.36 159.336 428.873C157.424 432.643 156.086 436.025 155.512 439.022C154.843 442.018 154.843 444.531 155.512 446.464C156.086 448.397 157.137 449.847 158.762 450.717C160.292 451.49 161.726 451.683 163.255 451.2C164.784 450.717 166.218 449.654 167.652 448.011C169.086 446.367 170.52 444.241 171.858 441.535C173.579 438.152 174.821 435.059 175.491 431.966C176.16 428.873 176.255 426.36 175.777 424.234C175.299 422.107 174.248 420.561 172.527 419.691C170.998 418.918 169.564 418.724 168.035 419.304Z" fill="#F7F8F6"/>
<path d="M143.355 422.073L140.251 419.745C139.184 418.97 138.117 418.388 136.953 418.097C135.789 417.806 134.722 417.903 133.558 418.291C132.394 418.679 131.23 419.552 130.162 420.715C129.968 420.909 129.677 421.297 129.289 421.782C127.349 424.4 126.476 426.631 126.573 428.764C126.573 430.8 127.737 432.643 129.871 434.194C132.2 435.843 133.946 437.007 135.207 437.685L132.879 438.461L127.931 434.776C125.312 432.837 123.566 430.606 122.596 427.988C121.626 425.37 122.305 422.558 124.633 419.455C125.7 418 126.961 416.933 128.416 416.254C129.871 415.479 131.424 415.091 132.976 415.091C134.528 415.091 135.983 415.382 137.341 415.867L139.087 416.545C140.93 417.903 142.773 419.261 144.617 420.618L143.549 421.879L143.355 422.073ZM154.899 414.412C153.929 415.382 152.862 416.545 151.892 417.903L140.542 433.128C139.475 434.485 138.699 435.746 138.117 436.813C137.341 438.267 136.759 439.722 136.371 441.176L131.133 437.201C132.976 435.067 134.528 433.225 135.789 431.576L136.856 430.218L148.206 414.994C149.079 413.83 149.758 412.763 150.34 411.794C151.116 410.242 151.795 408.594 152.28 406.848L158.586 411.503C157.227 412.376 155.966 413.345 154.996 414.315L154.899 414.412ZM138.99 416.158C139.087 416.642 139.475 417.127 140.057 417.515L136.371 416.836C135.595 416.254 135.013 415.673 134.625 415.091C134.334 414.509 134.14 413.927 134.237 413.345C134.237 412.666 134.528 411.891 134.819 410.824L137.535 402.969C137.923 401.903 138.117 400.933 138.214 400.06C138.311 399.187 138.408 398.121 138.505 396.666L143.743 400.642L139.378 413.636C138.99 414.8 138.893 415.576 138.99 416.061V416.158Z" fill="#F7F8F6"/>
<path d="M138.612 393.93C138.029 394.596 137.446 395.358 137.155 396.215C136.766 397.072 136.572 397.929 136.572 398.69C134.921 398.214 132.785 397.834 130.26 397.453C130.454 396.12 131.037 394.882 132.105 393.74C132.979 392.787 134.047 392.026 135.31 391.455C136.572 390.883 137.835 390.598 139.097 390.598C140.36 390.598 141.428 390.883 142.399 391.55C140.942 391.931 139.777 392.787 138.709 393.835L138.612 393.93Z" fill="#F7F8F6"/>
<path d="M91.5787 392.011C91.5787 393.484 91.7763 394.958 92.3691 396.529C93.0608 398.1 94.1477 399.868 95.8274 401.833L97.8035 404.092L96.519 405.172L85.749 392.699L92.7643 387.101C92.0727 388.967 91.6775 390.636 91.5787 392.011ZM124.086 386.511C122.901 387.297 121.616 388.181 120.332 389.359L105.609 401.833C104.127 403.109 102.942 404.288 102.052 405.27C101.163 406.35 100.274 407.529 99.5821 408.806L95.1357 403.699C96.2226 402.913 97.4083 402.029 98.6928 401.047C99.9773 400.065 101.163 399.083 102.349 398.1L117.071 385.627C119.541 383.467 121.715 381.404 123.691 379.342L128.236 384.547C126.655 385.136 125.272 385.824 124.086 386.511ZM105.609 385.431C106.103 386.904 107.289 388.574 108.969 390.636L111.735 393.877L110.451 394.958L107.684 391.815C105.906 389.752 104.325 388.377 103.04 387.69C101.657 386.904 99.9773 386.61 97.8035 386.61L105.115 380.422C104.918 382.386 105.115 384.154 105.609 385.627V385.431ZM123.691 381.993L121.814 379.735C120.134 377.77 118.553 376.395 117.17 375.61C115.786 374.824 114.304 374.333 112.921 374.136C111.538 373.94 109.66 374.136 107.388 374.431L114.304 368.342L125.074 380.815L123.79 381.895L123.691 381.993Z" fill="#F7F8F6"/>
<path d="M98.1114 350.162C100.977 350.355 103.557 352.194 105.754 355.678L102.41 355.968C101.073 353.936 99.4489 352.678 97.5382 352.388C95.6276 352.097 93.4303 352.678 91.042 354.226L76.5211 363.614C75.0881 364.582 73.9417 365.453 72.8908 366.421C72.031 367.388 71.1712 368.453 70.407 369.614L67.541 365.066C69.2606 364.679 70.6936 364.291 71.84 363.807C72.9864 363.324 74.2283 362.646 75.4702 361.872L89.8001 352.581C92.5705 350.742 95.4365 349.968 98.3025 350.162H98.1114ZM101.073 365.84C102.697 364.388 103.557 362.84 103.843 361.194C104.034 359.549 103.652 357.807 102.506 355.968L105.85 355.678C107.665 358.485 108.333 361.098 107.856 363.42C107.378 365.743 106.136 367.775 104.13 369.614C103.461 370.195 102.697 370.776 101.742 371.453L87.4118 380.744C86.0743 381.615 84.9279 382.582 83.8771 383.453C82.9217 384.324 82.062 385.389 81.2022 386.55L77.0943 380.066C78.7183 379.679 80.0558 379.292 81.1066 378.808C82.1575 378.324 83.3994 377.55 84.8324 376.679L99.3533 367.292C100.022 366.904 100.595 366.421 101.073 365.937V365.84Z" fill="#F7F8F6"/>
<path d="M64.647 350.893C63.6696 351.957 62.79 353.02 62.2035 354.18L58.6849 345.673C58.6849 345.673 59.6623 345.576 60.4442 345.383C61.1284 345.19 61.9103 344.996 62.6922 344.61C64.2561 344.03 65.5267 343.256 66.6995 342.386L86.736 326.339L87.4202 327.982L61.8126 330.496C61.0307 330.496 60.2487 330.689 59.4668 330.882C58.6849 331.076 57.903 331.366 57.2188 331.656C56.4369 331.946 55.7528 332.332 55.1663 332.622C54.5799 333.009 54.1889 333.396 53.8957 333.783L51.3545 327.692C52.7228 328.079 54.0912 328.369 55.5573 328.466C57.0234 328.466 58.9781 328.466 61.2261 328.369L90.8411 325.855L91.8185 328.272L68.9475 347.123C67.1882 348.67 65.8199 349.927 64.7447 350.893H64.647Z" fill="#F7F8F6"/>
<path d="M82.8084 308.589C81.726 310.981 79.8564 312.991 77.2979 314.81C74.7394 316.629 71.5905 317.969 67.8512 318.926C64.3087 319.787 61.0615 319.979 57.9126 319.596C54.7637 319.213 52.1068 318.16 49.942 316.533C47.7771 314.906 46.3011 312.704 45.6123 309.929C45.0218 307.536 45.2186 305.143 46.3011 302.75C47.3835 300.357 49.2531 298.251 51.91 296.433C54.5669 294.614 57.7158 293.178 61.3567 292.317C64.8008 291.456 68.1464 291.264 71.1969 291.647C74.3458 292.03 76.9043 293.083 79.0691 294.71C81.234 296.337 82.71 298.538 83.3989 301.314C83.9893 303.707 83.7925 306.1 82.71 308.493L82.8084 308.589ZM78.2819 297.007C76.8059 296.241 74.9362 295.858 72.673 295.763C70.4097 295.763 67.8512 296.05 65.096 296.72C60.9631 297.773 57.4206 299.017 54.7637 300.548C52.0084 302.08 50.1388 303.707 49.0563 305.43C47.9739 307.153 47.5803 308.876 48.0723 310.599C48.4659 312.226 49.3515 313.47 50.8276 314.236C52.2052 315.001 53.9765 315.384 56.2397 315.48C58.503 315.48 61.0615 315.097 64.0135 314.427C67.7528 313.566 71.0001 312.321 73.7554 310.886C76.5107 309.45 78.5771 307.823 79.8564 306.004C81.1356 304.186 81.5292 302.463 81.1356 300.644C80.742 299.017 79.758 297.773 78.3803 297.007H78.2819Z" fill="#F7F8F6"/>
<path d="M73.3709 265.146C75.8653 266.701 77.2084 269.519 77.5922 273.697L74.5221 272.337C74.3303 269.907 73.4668 268.061 71.8359 266.798C70.2049 265.535 68.0943 265.049 65.2161 265.34L47.9472 266.798C46.3162 266.895 44.7812 267.187 43.4381 267.575C42.1909 267.964 41.0396 268.547 39.6965 269.227L39.2168 263.786C40.9437 264.271 42.3828 264.563 43.63 264.66C44.8772 264.757 46.2203 264.757 47.7553 264.66L64.7364 263.203C67.9983 262.911 70.8765 263.591 73.3709 265.146ZM68.6699 280.499C70.6846 280.013 72.3155 279.041 73.2749 277.681C74.2343 276.32 74.714 274.571 74.5221 272.434L77.5922 273.794C77.88 277.195 77.2084 279.721 75.7693 281.568C74.2343 283.414 72.2196 284.58 69.6293 285.26C68.7658 285.454 67.8064 285.649 66.6552 285.746L49.5781 287.203C47.9472 287.301 46.5081 287.592 45.165 287.981C43.9178 288.272 42.6706 288.758 41.3274 289.438L40.6559 281.762C42.2868 282.151 43.63 282.442 44.7812 282.539C45.9325 282.539 47.3716 282.539 49.0985 282.442L66.3674 280.985C67.1349 280.985 67.9024 280.79 68.5739 280.596L68.6699 280.499Z" fill="#F7F8F6"/>
<path d="M66.8298 254.421C65.6506 254.581 64.3731 254.82 63.0957 254.9C61.8182 254.979 60.639 255.139 59.3615 255.298C58.084 255.457 56.9048 255.457 55.6274 255.537C54.3499 255.617 53.0724 255.617 51.6967 255.697H51.5984C46.292 255.856 42.1648 256.015 39.2168 256.175V250.994C42.3613 251.233 46.3903 251.632 51.6967 251.951C54.8412 252.19 57.691 252.429 60.1476 252.748C62.6043 253.066 65.1593 253.465 67.6159 254.023H68.009L66.8298 254.342V254.421ZM76.46 256.334C75.7721 256.812 74.9859 257.131 74.1015 257.052C73.1189 257.052 72.3327 256.733 71.7431 256.255C71.1535 255.697 70.7605 255.059 70.8587 254.262C70.8587 253.465 71.2518 252.827 71.9397 252.349C72.6275 251.871 73.4137 251.552 74.3963 251.632C75.2808 251.632 76.0669 251.951 76.7548 252.429C77.4426 252.907 77.7374 253.624 77.6392 254.421C77.5409 255.218 77.2461 255.856 76.5582 256.414L76.46 256.334Z" fill="#F7F8F6"/>
<path d="M49.1292 211.47C47.7229 211.667 46.4103 212.062 45.2852 212.555L47.7229 203.476C47.7229 203.476 48.5667 204.068 49.223 204.265C49.8793 204.561 50.6294 204.857 51.3794 205.055C52.8796 205.548 54.3797 205.745 55.6923 205.745L80.3506 205.351L79.8819 207.028L59.0676 193.113C58.505 192.718 57.755 192.323 57.0987 191.928C56.3486 191.632 55.6923 191.336 54.9422 191.139C54.1922 190.942 53.4421 190.744 52.7858 190.645C52.1295 190.645 51.5669 190.645 51.0982 190.744L52.8796 184.23C53.6296 185.415 54.5672 186.5 55.5985 187.487C56.7236 188.474 58.13 189.659 59.9114 190.843L83.7259 207.325L82.9759 209.891L54.4734 210.779C52.2232 210.779 50.4418 210.976 49.0355 211.174L49.1292 211.47Z" fill="#F7F8F6"/>
<path d="M85.1116 191.712C83.9103 191.054 82.4087 190.395 80.807 189.736L62.5877 182.961C60.8859 182.302 59.3843 181.832 58.183 181.643C56.4812 181.267 54.8795 181.173 53.3779 181.079L56.281 174.115C57.5824 175.15 58.7837 176.091 60.085 176.75C61.2863 177.409 62.7879 178.068 64.3896 178.726L82.6089 185.502C84.3107 186.16 85.7122 186.631 87.0136 186.819C88.6153 187.101 90.217 187.29 91.8187 187.384L88.9156 194.347C87.6143 193.312 86.413 192.371 85.2117 191.712H85.1116Z" fill="#F7F8F6"/>
<path d="M88.283 184.357C87.4012 183.15 86.1275 181.642 84.5599 180.034L63.4951 158.42L64.7688 155.906L94.1615 161.234C96.415 161.637 98.3745 161.838 99.8441 161.938C101.314 161.938 102.685 161.938 103.959 161.637L99.6482 170.182C99.6482 170.182 98.8644 169.478 98.2765 168.975C97.6886 168.573 97.0028 168.171 96.219 167.769C94.7494 166.965 93.2797 166.462 91.9081 166.16L66.5324 161.234L67.3162 159.626L85.8336 178.023C86.3235 178.626 87.0093 179.129 87.6951 179.632C88.381 180.134 89.0668 180.537 89.7526 180.939C90.5364 181.341 91.2223 181.642 91.8101 181.843C92.398 182.044 92.9858 182.145 93.4757 182.145L90.3405 188.277C89.8506 186.971 89.0668 185.664 88.185 184.457L88.283 184.357ZM87.8911 162.742L89.3607 163.547L82.6004 176.917L81.1308 176.113L87.8911 162.742Z" fill="#F7F8F6"/>
<path d="M106.246 157.16C103.735 158.074 101.031 158.176 98.0374 157.465C95.1401 156.754 92.1462 155.23 89.0557 152.996C85.9652 150.66 83.5508 148.02 82.0056 144.973C80.3638 142.028 79.5912 138.981 79.6877 135.833C79.6877 132.786 80.7501 129.841 82.585 127.099C84.1303 124.763 86.0618 122.935 88.2831 121.514L94.0777 127.912C91.3736 127.506 89.0557 127.607 87.2207 128.318C85.3858 129.029 83.9371 130.248 82.7782 131.974C81.8124 133.396 81.4261 134.818 81.6193 136.341C81.8124 137.864 82.4885 139.489 83.8405 141.216C85.1926 142.942 87.2207 144.872 89.8283 146.903C92.7256 149.137 95.7195 150.66 98.6168 151.574C101.514 152.488 104.218 152.692 106.536 152.184C108.854 151.676 110.689 150.559 111.944 148.629C112.524 147.817 113.007 147.004 113.393 146.09C113.779 145.176 114.166 144.364 114.455 143.348C114.455 143.044 114.552 142.841 114.649 142.536L112.427 151.981C110.786 154.418 108.661 156.145 106.15 157.059L106.246 157.16ZM104.411 140.099C102.963 139.489 101.707 139.083 100.742 139.083C99.6792 139.083 98.6168 139.083 97.4579 139.388L102.48 131.974L116.097 142.231C116.001 143.856 115.614 145.481 115.035 147.208C114.455 148.934 113.586 150.559 112.524 152.184L113.779 146.09C109.82 143.145 106.729 141.114 104.411 140.2V140.099Z" fill="#F7F8F6"/>
<path d="M116.953 137.882C116.055 136.82 114.958 135.661 113.761 134.502L99.5987 121.465C98.2024 120.113 96.9058 119.147 95.709 118.375C94.5122 117.602 93.2156 116.926 91.8193 116.347L96.5069 111.518C97.4045 112.484 98.4019 113.546 99.5987 114.705C100.696 115.864 101.893 116.926 102.99 117.988L117.152 131.026C119.546 133.247 121.939 135.178 124.233 136.82L119.446 141.745C118.648 140.297 117.85 138.945 117.052 137.882H116.953ZM108.076 106.882C106.58 106.882 105.184 107.365 103.588 108.138C101.992 108.91 100.397 110.263 98.6013 112.001L96.5069 114.125L95.2103 112.967L106.68 101.281L113.063 107.462C111.068 106.979 109.373 106.786 107.976 106.882H108.076ZM116.155 119.823C114.758 120.499 113.163 121.755 111.268 123.686L108.375 126.68L107.179 125.521L110.071 122.527C111.966 120.596 113.163 118.954 113.761 117.505C114.359 116.057 114.559 114.415 114.26 112.291L121.341 118.761C119.247 118.761 117.551 119.051 116.155 119.727V119.823ZM121.54 137.11L123.635 134.985C125.43 133.15 126.627 131.509 127.425 130.06C128.123 128.611 128.422 127.163 128.422 125.811C128.422 124.459 128.123 122.624 127.525 120.499L134.307 126.583L122.837 138.269L121.54 137.11Z" fill="#F7F8F6"/>
<path d="M154.538 109.56L151.739 111.61L117.449 98.0996L118.549 97.3542L133.444 114.871C134.544 116.082 135.544 117.2 136.643 118.039C137.643 118.877 138.743 119.623 140.042 120.368L135.744 123.536C135.144 121.952 134.544 120.554 133.944 119.53C133.344 118.411 132.545 117.387 131.645 116.268L118.449 100.802C117.249 99.404 116.15 98.286 114.95 97.4474C114.05 96.702 113.05 96.143 112.051 95.7703L118.049 91.3911C118.149 92.0433 118.449 92.6024 118.849 93.0682C119.149 93.4409 119.549 93.8136 120.048 94C120.548 94.2795 121.148 94.559 122.048 94.9317L150.239 106.019L149.24 106.765L134.644 89.6208C133.644 88.5027 132.645 87.4778 131.545 86.5461C130.745 85.8939 129.546 85.0553 127.946 84.2167L132.245 81.0488C132.845 82.6328 133.444 84.0304 133.944 85.0553C134.544 86.1734 135.344 87.2915 136.243 88.4095L154.538 109.839V109.56Z" fill="#F7F8F6"/>
<path d="M145.188 76.8822C144.89 78.2411 145.188 79.5999 145.98 81.0559C146.773 82.3177 147.863 83.0942 149.25 83.5795C150.637 83.9677 152.917 84.2589 155.889 84.356H160.844C163.42 84.453 165.501 84.8413 167.185 85.5207C168.87 86.2002 170.158 87.3649 171.248 89.112C172.338 90.9562 172.833 92.8004 172.734 94.7416C172.635 96.6829 172.14 98.43 171.05 99.983C169.96 101.536 168.671 102.798 166.987 103.768C164.51 105.224 161.933 105.613 159.357 105.127C156.781 104.642 154.304 103.38 151.926 101.439L154.7 96.6829C157.276 99.1095 159.654 100.662 161.735 101.245C163.816 101.827 165.699 101.633 167.185 100.857C168.671 99.983 169.563 98.9153 170.059 97.6535C170.455 96.2946 170.257 94.9358 169.464 93.5769C168.671 92.218 167.581 91.2474 166.392 90.665C165.203 90.0827 163.321 89.7915 160.744 89.6944H154.403C152.718 89.5003 151.232 89.4032 149.944 89.112C148.656 88.9179 147.467 88.4326 146.377 87.7532C145.287 87.0737 144.395 86.2002 143.701 84.9384C142.71 83.2883 142.314 81.6382 142.413 79.697C142.413 77.7557 143.107 76.0086 144.296 74.1644C145.485 72.4173 147.169 70.8643 149.25 69.6025C152.025 67.9524 154.403 67.0789 156.385 66.8848L159.654 74.6497C157.276 73.2909 155.096 72.6114 153.016 72.5144C150.935 72.4173 149.151 72.8056 147.566 73.6791C146.179 74.4556 145.287 75.5233 144.989 76.8822H145.188Z" fill="#F7F8F6"/>
<path d="M202.083 232.788C213.816 232.788 223.327 223.73 223.327 212.556C223.327 201.382 213.816 192.324 202.083 192.324C190.351 192.324 180.84 201.382 180.84 212.556C180.84 223.73 190.351 232.788 202.083 232.788Z" fill="#F7F8F6"/>
<path d="M334.603 324.714V285.963C334.603 284.332 333.351 282.989 331.713 282.893C327.859 282.701 323.909 282.606 320.055 282.126C304.929 280.112 290.766 273.973 281.999 261.215C273.231 248.458 271.594 233.207 271.304 218.627H263.886C264.079 229.466 263.597 240.305 263.886 251.048C264.464 272.918 267.836 299.487 285.563 314.451C298.185 325.098 315.238 327.88 331.424 327.88C333.158 327.88 334.507 326.441 334.507 324.81L334.603 324.714Z" fill="#F7F8F6"/>
<path d="M251.555 188.374C250.88 215.881 254.932 248.618 239.496 272.929C227.147 292.3 205.634 297.53 183.927 297.53C182.19 297.53 180.84 296.077 180.84 294.334V255.011C180.84 253.267 182.19 251.911 183.927 251.911C202.836 251.911 223.095 246.875 234.19 230.313C240.557 220.821 243.548 207.745 244.223 196.51C244.32 194.282 243.837 191.086 244.223 189.052C244.223 188.762 244.513 188.277 244.706 188.277H251.652L251.555 188.374Z" fill="#F7F8F6"/>
</svg>
